<svg width="1870" height="105" viewBox="0 0 1870 105" fill="none" xmlns="http://www.w3.org/2000/svg">
<path d="M113.2 0.199993V23.672H71.296V101H41.92V23.672H0.304V0.199993H113.2ZM217.086 0.199993H246.462V101H217.086V61.976H156.606V101H127.23V0.199993H156.606V37.784H217.086V0.199993ZM299.481 101H270.105V0.199993H299.481V101ZM460.122 0.199993V23.672H418.218V101H388.842V23.672H347.226V0.199993H460.122ZM564.008 0.199993H593.384V101H564.008V61.976H503.528V101H474.152V0.199993H503.528V37.784H564.008V0.199993ZM702.995 0.199993H732.371V53.48C732.371 84.152 711.491 104.312 673.907 104.312C636.323 104.312 615.299 84.152 615.299 53.48V0.199993H644.675V51.176C644.675 68.744 654.467 80.12 673.907 80.12C693.347 80.12 702.995 68.744 702.995 51.176V0.199993ZM891.138 0.199993V23.672H849.234V101H819.858V23.672H778.242V0.199993H891.138ZM995.023 0.199993H1024.4V101H995.023V61.976H934.543V101H905.167V0.199993H934.543V37.784H995.023V0.199993ZM1134.01 0.199993H1163.39V53.48C1163.39 84.152 1142.51 104.312 1104.92 104.312C1067.34 104.312 1046.31 84.152 1046.31 53.48V0.199993H1075.69V51.176C1075.69 68.744 1085.48 80.12 1104.92 80.12C1124.36 80.12 1134.01 68.744 1134.01 51.176V0.199993ZM1172.91 0.199993H1205.74L1235.12 43.688L1264.35 0.199993H1297.04L1249.66 67.016V101H1220.28V67.016L1172.91 0.199993ZM1397.13 0.199993C1435.86 0.199993 1460.49 18.92 1460.49 50.6C1460.49 82.28 1435.86 101 1397.13 101H1340.82V0.199993H1397.13ZM1394.82 77.672C1416.42 77.672 1430.54 68.456 1430.54 50.6C1430.54 32.744 1416.42 23.528 1394.82 23.528H1370.2V77.672H1394.82ZM1564.76 101L1555.26 81.704H1499.96L1490.46 101H1459.64L1511.77 0.199993H1543.88L1596.01 101H1564.76ZM1510.04 60.824H1545.03L1527.61 25.112L1510.04 60.824ZM1698.03 0.199993H1726.4V101H1700.62L1635.54 34.76V101H1607.17V0.199993H1638.27L1698.03 61.832V0.199993ZM1839.9 0.199993H1869.27V101H1839.9V61.976H1779.42V101H1750.04V0.199993H1779.42V37.784H1839.9V0.199993Z" fill="black"/>
</svg>
